<mxfile host="app.diagrams.net" modified="2023-10-26T13:00:48.906Z" agent="Mozilla/5.0 (Windows NT 10.0; Win64; x64) AppleWebKit/537.36 (KHTML, like Gecko) Chrome/117.0.0.0 Safari/537.36 OPR/103.0.0.0" etag="GfXJiBuwTFQGQM7yJ_J4" version="22.0.8" type="device">
  <diagram id="YU3mXbUw0xb2pi0hIi77" name="Sayfa -1">
    <mxGraphModel dx="826" dy="437" grid="1" gridSize="10" guides="1" tooltips="1" connect="1" arrows="1" fold="1" page="1" pageScale="1" pageWidth="827" pageHeight="1169" background="#FF7863" math="0" shadow="1">
      <root>
        <mxCell id="0" />
        <mxCell id="1" parent="0" />
        <mxCell id="w4cwJRFkjCECqYpJqG5X-3" style="edgeStyle=orthogonalEdgeStyle;rounded=0;orthogonalLoop=1;jettySize=auto;html=1;exitX=0.5;exitY=1;exitDx=0;exitDy=0;entryX=0.5;entryY=0;entryDx=0;entryDy=0;" parent="1" source="w4cwJRFkjCECqYpJqG5X-1" target="w4cwJRFkjCECqYpJqG5X-2" edge="1">
          <mxGeometry relative="1" as="geometry" />
        </mxCell>
        <mxCell id="w4cwJRFkjCECqYpJqG5X-1" value="&lt;p class=&quot;MsoNormal&quot; align=&quot;center&quot;&gt;Başla&lt;/p&gt;" style="rounded=1;whiteSpace=wrap;html=1;" parent="1" vertex="1">
          <mxGeometry x="340" y="20" width="120" height="40" as="geometry" />
        </mxCell>
        <mxCell id="w4cwJRFkjCECqYpJqG5X-23" style="edgeStyle=orthogonalEdgeStyle;rounded=0;orthogonalLoop=1;jettySize=auto;html=1;exitX=0.5;exitY=1;exitDx=0;exitDy=0;" parent="1" source="w4cwJRFkjCECqYpJqG5X-2" target="w4cwJRFkjCECqYpJqG5X-4" edge="1">
          <mxGeometry relative="1" as="geometry" />
        </mxCell>
        <mxCell id="w4cwJRFkjCECqYpJqG5X-2" value="&lt;p class=&quot;MsoNormal&quot; align=&quot;center&quot;&gt;Eğitim içeriğinin belirlenip dekanlığa gönderilmesi&lt;/p&gt;" style="rounded=0;whiteSpace=wrap;html=1;" parent="1" vertex="1">
          <mxGeometry x="340" y="150" width="120" height="60" as="geometry" />
        </mxCell>
        <mxCell id="w4cwJRFkjCECqYpJqG5X-24" style="edgeStyle=orthogonalEdgeStyle;rounded=0;orthogonalLoop=1;jettySize=auto;html=1;exitX=0.5;exitY=1;exitDx=0;exitDy=0;entryX=0.5;entryY=0;entryDx=0;entryDy=0;" parent="1" source="w4cwJRFkjCECqYpJqG5X-4" target="w4cwJRFkjCECqYpJqG5X-5" edge="1">
          <mxGeometry relative="1" as="geometry" />
        </mxCell>
        <mxCell id="JD43bth1GbUQQEuKVmNL-6" style="edgeStyle=elbowEdgeStyle;rounded=0;orthogonalLoop=1;jettySize=auto;html=1;entryX=0;entryY=0.5;entryDx=0;entryDy=0;" parent="1" source="w4cwJRFkjCECqYpJqG5X-4" target="w4cwJRFkjCECqYpJqG5X-2" edge="1">
          <mxGeometry relative="1" as="geometry">
            <mxPoint x="290" y="180" as="targetPoint" />
            <Array as="points">
              <mxPoint x="310" y="215" />
            </Array>
          </mxGeometry>
        </mxCell>
        <mxCell id="w4cwJRFkjCECqYpJqG5X-4" value="&lt;p class=&quot;MsoNormal&quot; align=&quot;center&quot;&gt;&lt;br&gt;&lt;/p&gt;&lt;p class=&quot;MsoNormal&quot; align=&quot;center&quot;&gt;Dekanlık Onayının&lt;br&gt;Alınması&lt;br&gt;&lt;/p&gt;&lt;p class=&quot;MsoNormal&quot; align=&quot;center&quot;&gt;&lt;br&gt;&lt;/p&gt;" style="rounded=0;whiteSpace=wrap;html=1;" parent="1" vertex="1">
          <mxGeometry x="340" y="250" width="120" height="40" as="geometry" />
        </mxCell>
        <mxCell id="w4cwJRFkjCECqYpJqG5X-25" style="edgeStyle=orthogonalEdgeStyle;rounded=0;orthogonalLoop=1;jettySize=auto;html=1;exitX=0.5;exitY=1;exitDx=0;exitDy=0;entryX=0.5;entryY=0;entryDx=0;entryDy=0;exitPerimeter=0;" parent="1" source="w4cwJRFkjCECqYpJqG5X-5" target="w4cwJRFkjCECqYpJqG5X-10" edge="1">
          <mxGeometry relative="1" as="geometry">
            <mxPoint x="400" y="420" as="targetPoint" />
            <Array as="points">
              <mxPoint x="390" y="390" />
            </Array>
          </mxGeometry>
        </mxCell>
        <mxCell id="w4cwJRFkjCECqYpJqG5X-5" value="&lt;p class=&quot;MsoNormal&quot; align=&quot;center&quot;&gt;Eğitim Tarihi,Süresi&lt;br&gt;ve Yerinin Belirlenmesi&lt;br&gt;&lt;/p&gt;" style="rounded=0;whiteSpace=wrap;html=1;" parent="1" vertex="1">
          <mxGeometry x="340" y="330" width="120" height="60" as="geometry" />
        </mxCell>
        <mxCell id="w4cwJRFkjCECqYpJqG5X-31" style="edgeStyle=orthogonalEdgeStyle;rounded=0;orthogonalLoop=1;jettySize=auto;html=1;exitX=1;exitY=0.5;exitDx=0;exitDy=0;" parent="1" source="w4cwJRFkjCECqYpJqG5X-10" edge="1">
          <mxGeometry relative="1" as="geometry">
            <Array as="points">
              <mxPoint x="440" y="560" />
              <mxPoint x="640" y="560" />
            </Array>
            <mxPoint x="640" y="590" as="targetPoint" />
          </mxGeometry>
        </mxCell>
        <mxCell id="w4cwJRFkjCECqYpJqG5X-10" value="&lt;p class=&quot;MsoNormal&quot; align=&quot;center&quot;&gt;TANITIM&lt;br&gt;SEMİNERİ&lt;br&gt;YAPILACAK&lt;br&gt;MI?&lt;/p&gt;" style="rhombus;whiteSpace=wrap;html=1;" parent="1" vertex="1">
          <mxGeometry x="340" y="440" width="100" height="120" as="geometry" />
        </mxCell>
        <mxCell id="w4cwJRFkjCECqYpJqG5X-11" value="EVET" style="text;html=1;strokeColor=none;fillColor=none;align=center;verticalAlign=middle;whiteSpace=wrap;rounded=0;" parent="1" vertex="1">
          <mxGeometry x="300" y="520" width="40" height="20" as="geometry" />
        </mxCell>
        <mxCell id="w4cwJRFkjCECqYpJqG5X-12" value="HAYIR" style="text;html=1;strokeColor=none;fillColor=none;align=center;verticalAlign=middle;whiteSpace=wrap;rounded=0;" parent="1" vertex="1">
          <mxGeometry x="720" y="610" width="40" height="20" as="geometry" />
        </mxCell>
        <mxCell id="w4cwJRFkjCECqYpJqG5X-20" style="edgeStyle=orthogonalEdgeStyle;rounded=0;orthogonalLoop=1;jettySize=auto;html=1;exitX=0.5;exitY=1;exitDx=0;exitDy=0;entryX=0.5;entryY=0;entryDx=0;entryDy=0;" parent="1" source="w4cwJRFkjCECqYpJqG5X-15" target="w4cwJRFkjCECqYpJqG5X-17" edge="1">
          <mxGeometry relative="1" as="geometry">
            <mxPoint x="220" y="950" as="targetPoint" />
          </mxGeometry>
        </mxCell>
        <mxCell id="w4cwJRFkjCECqYpJqG5X-15" value="&lt;p class=&quot;MsoNormal&quot; align=&quot;center&quot;&gt;Tanıtım semineri&lt;br&gt;Talep formunun oluşturulması&amp;nbsp;&lt;/p&gt;" style="rounded=0;whiteSpace=wrap;html=1;" parent="1" vertex="1">
          <mxGeometry x="160" y="580" width="120" height="70" as="geometry" />
        </mxCell>
        <mxCell id="w4cwJRFkjCECqYpJqG5X-22" style="edgeStyle=orthogonalEdgeStyle;rounded=0;orthogonalLoop=1;jettySize=auto;html=1;exitX=0.5;exitY=1;exitDx=0;exitDy=0;" parent="1" source="w4cwJRFkjCECqYpJqG5X-17" target="w4cwJRFkjCECqYpJqG5X-19" edge="1">
          <mxGeometry relative="1" as="geometry" />
        </mxCell>
        <mxCell id="w4cwJRFkjCECqYpJqG5X-17" value="&lt;p class=&quot;MsoNormal&quot; align=&quot;center&quot;&gt;Tanıtım Seminerinin&lt;br/&gt;Duyurulması&lt;/p&gt;" style="rounded=0;whiteSpace=wrap;html=1;" parent="1" vertex="1">
          <mxGeometry x="160" y="710" width="120" height="70" as="geometry" />
        </mxCell>
        <mxCell id="w4cwJRFkjCECqYpJqG5X-19" value="&lt;p class=&quot;MsoNormal&quot; align=&quot;center&quot;&gt;Tanıtım Seminerini&lt;br/&gt;Gerçekleştirilmesi&lt;/p&gt;" style="rounded=0;whiteSpace=wrap;html=1;" parent="1" vertex="1">
          <mxGeometry x="160" y="840" width="120" height="80" as="geometry" />
        </mxCell>
        <mxCell id="w4cwJRFkjCECqYpJqG5X-44" style="edgeStyle=orthogonalEdgeStyle;rounded=0;orthogonalLoop=1;jettySize=auto;html=1;exitX=0.5;exitY=1;exitDx=0;exitDy=0;" parent="1" source="w4cwJRFkjCECqYpJqG5X-30" edge="1">
          <mxGeometry relative="1" as="geometry">
            <mxPoint x="552" y="790" as="targetPoint" />
            <Array as="points">
              <mxPoint x="640" y="760" />
              <mxPoint x="552" y="760" />
            </Array>
          </mxGeometry>
        </mxCell>
        <mxCell id="w4cwJRFkjCECqYpJqG5X-45" style="edgeStyle=orthogonalEdgeStyle;rounded=0;orthogonalLoop=1;jettySize=auto;html=1;" parent="1" source="w4cwJRFkjCECqYpJqG5X-30" edge="1">
          <mxGeometry relative="1" as="geometry">
            <mxPoint x="767" y="720" as="targetPoint" />
          </mxGeometry>
        </mxCell>
        <mxCell id="w4cwJRFkjCECqYpJqG5X-67" style="edgeStyle=orthogonalEdgeStyle;rounded=0;orthogonalLoop=1;jettySize=auto;html=1;exitX=1;exitY=0.25;exitDx=0;exitDy=0;entryX=0;entryY=0.5;entryDx=0;entryDy=0;" parent="1" source="w4cwJRFkjCECqYpJqG5X-19" target="w4cwJRFkjCECqYpJqG5X-30" edge="1">
          <mxGeometry relative="1" as="geometry">
            <mxPoint x="580" y="880" as="targetPoint" />
            <Array as="points">
              <mxPoint x="440" y="860" />
              <mxPoint x="440" y="650" />
            </Array>
          </mxGeometry>
        </mxCell>
        <mxCell id="w4cwJRFkjCECqYpJqG5X-30" value="&lt;p class=&quot;MsoNormal&quot; align=&quot;center&quot;&gt;&lt;span style=&quot;font-size: 9.0pt ; line-height: 107%&quot;&gt;Afiş,Broşür Yapılacak mı&lt;/span&gt;&lt;/p&gt;" style="rhombus;whiteSpace=wrap;html=1;" parent="1" vertex="1">
          <mxGeometry x="590" y="590" width="100" height="120" as="geometry" />
        </mxCell>
        <mxCell id="w4cwJRFkjCECqYpJqG5X-48" value="" style="edgeStyle=orthogonalEdgeStyle;rounded=0;orthogonalLoop=1;jettySize=auto;html=1;" parent="1" source="w4cwJRFkjCECqYpJqG5X-33" edge="1">
          <mxGeometry relative="1" as="geometry">
            <mxPoint x="540" y="890" as="targetPoint" />
          </mxGeometry>
        </mxCell>
        <mxCell id="w4cwJRFkjCECqYpJqG5X-33" value="&lt;p class=&quot;MsoNormal&quot; align=&quot;center&quot;&gt;Afiş, Broşür formunun&lt;br&gt;oluşturulması ve dağıtımı&lt;/p&gt;" style="rounded=0;whiteSpace=wrap;html=1;" parent="1" vertex="1">
          <mxGeometry x="480" y="790" width="120" height="50" as="geometry" />
        </mxCell>
        <mxCell id="w4cwJRFkjCECqYpJqG5X-55" style="edgeStyle=orthogonalEdgeStyle;rounded=0;orthogonalLoop=1;jettySize=auto;html=1;exitX=0.5;exitY=1;exitDx=0;exitDy=0;entryX=0.5;entryY=0;entryDx=0;entryDy=0;" parent="1" source="w4cwJRFkjCECqYpJqG5X-35" target="w4cwJRFkjCECqYpJqG5X-36" edge="1">
          <mxGeometry relative="1" as="geometry" />
        </mxCell>
        <mxCell id="w4cwJRFkjCECqYpJqG5X-35" value="&lt;p class=&quot;MsoNormal&quot; align=&quot;center&quot;&gt;Ön kayıtların&lt;br/&gt;alınması&lt;/p&gt;" style="rounded=0;whiteSpace=wrap;html=1;" parent="1" vertex="1">
          <mxGeometry x="707" y="720" width="120" height="60" as="geometry" />
        </mxCell>
        <mxCell id="w4cwJRFkjCECqYpJqG5X-56" style="edgeStyle=orthogonalEdgeStyle;rounded=0;orthogonalLoop=1;jettySize=auto;html=1;exitX=0.5;exitY=1;exitDx=0;exitDy=0;entryX=0.5;entryY=0;entryDx=0;entryDy=0;" parent="1" source="w4cwJRFkjCECqYpJqG5X-36" target="w4cwJRFkjCECqYpJqG5X-40" edge="1">
          <mxGeometry relative="1" as="geometry" />
        </mxCell>
        <mxCell id="w4cwJRFkjCECqYpJqG5X-36" value="&lt;p class=&quot;MsoNormal&quot; align=&quot;center&quot;&gt;Kesin kayıtların toplanıp sertifika, katılım belgesinin hazırlanması&lt;/p&gt;" style="rounded=0;whiteSpace=wrap;html=1;" parent="1" vertex="1">
          <mxGeometry x="707" y="840" width="120" height="70" as="geometry" />
        </mxCell>
        <mxCell id="w4cwJRFkjCECqYpJqG5X-51" style="edgeStyle=orthogonalEdgeStyle;rounded=0;orthogonalLoop=1;jettySize=auto;html=1;exitX=0.5;exitY=1;exitDx=0;exitDy=0;entryX=0.5;entryY=0;entryDx=0;entryDy=0;" parent="1" source="w4cwJRFkjCECqYpJqG5X-38" target="w4cwJRFkjCECqYpJqG5X-39" edge="1">
          <mxGeometry relative="1" as="geometry" />
        </mxCell>
        <mxCell id="w4cwJRFkjCECqYpJqG5X-38" value="&lt;p class=&quot;MsoNormal&quot; align=&quot;center&quot;&gt;Sosyal medya ve web&lt;br/&gt;adresinden paylaşım yapılması&lt;/p&gt;" style="rounded=0;whiteSpace=wrap;html=1;" parent="1" vertex="1">
          <mxGeometry x="480" y="890" width="120" height="80" as="geometry" />
        </mxCell>
        <mxCell id="w4cwJRFkjCECqYpJqG5X-59" style="edgeStyle=orthogonalEdgeStyle;rounded=0;orthogonalLoop=1;jettySize=auto;html=1;exitX=1;exitY=0.5;exitDx=0;exitDy=0;entryX=0;entryY=0.5;entryDx=0;entryDy=0;" parent="1" source="w4cwJRFkjCECqYpJqG5X-39" target="w4cwJRFkjCECqYpJqG5X-35" edge="1">
          <mxGeometry relative="1" as="geometry" />
        </mxCell>
        <mxCell id="w4cwJRFkjCECqYpJqG5X-39" value="&lt;p class=&quot;MsoNormal&quot; align=&quot;center&quot;&gt;Reklamların mailde&lt;br&gt;kayıtlı kişilere gönderilmesi&lt;/p&gt;" style="rounded=0;whiteSpace=wrap;html=1;" parent="1" vertex="1">
          <mxGeometry x="480" y="1010" width="120" height="70" as="geometry" />
        </mxCell>
        <mxCell id="w4cwJRFkjCECqYpJqG5X-57" style="edgeStyle=orthogonalEdgeStyle;rounded=0;orthogonalLoop=1;jettySize=auto;html=1;exitX=0.5;exitY=1;exitDx=0;exitDy=0;entryX=0.5;entryY=0;entryDx=0;entryDy=0;" parent="1" source="w4cwJRFkjCECqYpJqG5X-40" target="w4cwJRFkjCECqYpJqG5X-42" edge="1">
          <mxGeometry relative="1" as="geometry">
            <mxPoint x="767" y="1300" as="targetPoint" />
          </mxGeometry>
        </mxCell>
        <mxCell id="w4cwJRFkjCECqYpJqG5X-40" value="&lt;p class=&quot;MsoNormal&quot; align=&quot;center&quot;&gt;Eğitimin&lt;br/&gt;gerçekleştirilmesi&lt;/p&gt;" style="rounded=0;whiteSpace=wrap;html=1;" parent="1" vertex="1">
          <mxGeometry x="707" y="940" width="120" height="60" as="geometry" />
        </mxCell>
        <mxCell id="w4cwJRFkjCECqYpJqG5X-71" style="edgeStyle=orthogonalEdgeStyle;rounded=0;orthogonalLoop=1;jettySize=auto;html=1;exitX=0.5;exitY=1;exitDx=0;exitDy=0;entryX=0.5;entryY=0;entryDx=0;entryDy=0;" parent="1" source="w4cwJRFkjCECqYpJqG5X-42" target="w4cwJRFkjCECqYpJqG5X-43" edge="1">
          <mxGeometry relative="1" as="geometry" />
        </mxCell>
        <mxCell id="w4cwJRFkjCECqYpJqG5X-42" value="&lt;p class=&quot;MsoNormal&quot; align=&quot;center&quot;&gt;Eğitimin&lt;br/&gt;sonlandırılması ve sertifika, katılım belgelerinin dağıtılması&lt;/p&gt;" style="rounded=0;whiteSpace=wrap;html=1;" parent="1" vertex="1">
          <mxGeometry x="707" y="1050" width="120" height="90" as="geometry" />
        </mxCell>
        <mxCell id="w4cwJRFkjCECqYpJqG5X-43" value="&lt;p class=&quot;MsoNormal&quot; align=&quot;center&quot;&gt;BİTİŞ&lt;/p&gt;" style="rounded=1;whiteSpace=wrap;html=1;" parent="1" vertex="1">
          <mxGeometry x="707" y="1190" width="120" height="30" as="geometry" />
        </mxCell>
        <mxCell id="w4cwJRFkjCECqYpJqG5X-60" value="EVET" style="text;html=1;strokeColor=none;fillColor=none;align=center;verticalAlign=middle;whiteSpace=wrap;rounded=0;" parent="1" vertex="1">
          <mxGeometry x="600" y="720" width="40" height="20" as="geometry" />
        </mxCell>
        <mxCell id="JD43bth1GbUQQEuKVmNL-2" style="edgeStyle=orthogonalEdgeStyle;rounded=0;orthogonalLoop=1;jettySize=auto;html=1;exitX=0;exitY=0.5;exitDx=0;exitDy=0;" parent="1" source="w4cwJRFkjCECqYpJqG5X-10" edge="1">
          <mxGeometry relative="1" as="geometry">
            <Array as="points">
              <mxPoint x="340" y="560" />
              <mxPoint x="230" y="560" />
            </Array>
            <mxPoint x="300" y="880" as="sourcePoint" />
            <mxPoint x="230" y="580" as="targetPoint" />
          </mxGeometry>
        </mxCell>
        <mxCell id="JD43bth1GbUQQEuKVmNL-4" style="edgeStyle=orthogonalEdgeStyle;rounded=0;orthogonalLoop=1;jettySize=auto;html=1;exitX=0.5;exitY=1;exitDx=0;exitDy=0;" parent="1" source="w4cwJRFkjCECqYpJqG5X-4" target="w4cwJRFkjCECqYpJqG5X-4" edge="1">
          <mxGeometry relative="1" as="geometry" />
        </mxCell>
        <mxCell id="JD43bth1GbUQQEuKVmNL-5" value="EVET" style="text;html=1;align=center;verticalAlign=middle;resizable=0;points=[];autosize=1;" parent="1" vertex="1">
          <mxGeometry x="410" y="300" width="50" height="20" as="geometry" />
        </mxCell>
        <mxCell id="JD43bth1GbUQQEuKVmNL-7" value="HAYIR" style="text;html=1;align=center;verticalAlign=middle;resizable=0;points=[];autosize=1;" parent="1" vertex="1">
          <mxGeometry x="260" y="220" width="50" height="20" as="geometry" />
        </mxCell>
        <mxCell id="JD43bth1GbUQQEuKVmNL-11" value="&lt;font style=&quot;font-size: 12px&quot;&gt;Eğitim talebinin seçilmesi&lt;br&gt;&lt;/font&gt;" style="whiteSpace=wrap;html=1;" parent="1" vertex="1">
          <mxGeometry x="340" y="80" width="120" height="50" as="geometry" />
        </mxCell>
      </root>
    </mxGraphModel>
  </diagram>
</mxfile>
